<?xml version="1.0" encoding="UTF-8"?>
<!DOCTYPE score-partwise PUBLIC "-//Recordare//DTD MusicXML 3.0 Partwise//EN" "http://www.musicxml.org/dtds/partwise.dtd">
<score-partwise version="3.0">
  <work>
    <work-title>somewhere over the rainbow</work-title>
  </work>
  <identification>
    <creator type="composer">mackenzie</creator>
  </identification>
  <part-list>
    <score-part id="P1">
      <part-name>1</part-name>
    </score-part>
  </part-list>
  <part id="P1">
    <measure number="1">
      <attributes>
        <divisions>96</divisions>
        <key>
          <fifths>6</fifths>
        </key>
        <time symbol="common">
          <beats>4</beats>
          <beat-type>4</beat-type>
        </time>
        <staves>2</staves>
        <clef number="1">
          <sign>G</sign>
          <line>2</line>
        </clef>
        <clef number="2">
          <sign>F</sign>
          <line>4</line>
        </clef>
      </attributes>
      <note>
        <pitch>
          <step>F</step>
          <alter>1</alter>
          <octave>4</octave>
        </pitch>
        <duration>192</duration>
        <type>half</type>
        <staff>1</staff>
      </note>
      <note>
        <pitch>
          <step>F</step>
          <alter>1</alter>
          <octave>5</octave>
        </pitch>
        <duration>192</duration>
        <type>half</type>
        <staff>1</staff>
      </note>
      <backup>
        <duration>384</duration>
      </backup>
      <note>
        <pitch>
          <step>A</step>
          <alter>1</alter>
          <octave>3</octave>
        </pitch>
        <duration>384</duration>
        <type>whole</type>
        <staff>2</staff>
      </note>
      <backup>
        <duration>384</duration>
      </backup>
      <note>
        <pitch>
          <step>C</step>
          <alter>1</alter>
          <octave>4</octave>
        </pitch>
        <duration>384</duration>
        <type>whole</type>
        <staff>2</staff>
      </note>
      <backup>
        <duration>384</duration>
      </backup>
      <note>
        <pitch>
          <step>F</step>
          <alter>1</alter>
          <octave>3</octave>
        </pitch>
        <duration>384</duration>
        <type>whole</type>
        <staff>2</staff>
      </note>
    </measure>
    <measure number="2">
      <attributes>
        <divisions>96</divisions>
        <staves>2</staves>
      </attributes>
      <note>
        <pitch>
          <step>F</step>
          <alter>0</alter>
          <octave>5</octave>
        </pitch>
        <duration>96</duration>
        <type>quarter</type>
        <staff>1</staff>
      </note>
      <note>
        <pitch>
          <step>C</step>
          <alter>1</alter>
          <octave>5</octave>
        </pitch>
        <duration>48</duration>
        <type>eighth</type>
        <staff>1</staff>
      </note>
      <note>
        <pitch>
          <step>D</step>
          <alter>1</alter>
          <octave>5</octave>
        </pitch>
        <duration>48</duration>
        <type>eighth</type>
        <staff>1</staff>
      </note>
      <note>
        <pitch>
          <step>F</step>
          <alter>0</alter>
          <octave>5</octave>
        </pitch>
        <duration>96</duration>
        <type>quarter</type>
        <staff>1</staff>
      </note>
      <note>
        <pitch>
          <step>F</step>
          <alter>1</alter>
          <octave>5</octave>
        </pitch>
        <duration>96</duration>
        <type>quarter</type>
        <staff>1</staff>
      </note>
      <backup>
        <duration>384</duration>
      </backup>
      <note>
        <pitch>
          <step>C</step>
          <alter>1</alter>
          <octave>4</octave>
        </pitch>
        <duration>384</duration>
        <type>whole</type>
        <staff>2</staff>
      </note>
      <backup>
        <duration>384</duration>
      </backup>
      <note>
        <pitch>
          <step>A</step>
          <alter>1</alter>
          <octave>3</octave>
        </pitch>
        <duration>384</duration>
        <type>whole</type>
        <staff>2</staff>
      </note>
      <backup>
        <duration>384</duration>
      </backup>
      <note>
        <pitch>
          <step>F</step>
          <alter>0</alter>
          <octave>3</octave>
        </pitch>
        <duration>384</duration>
        <type>whole</type>
        <staff>2</staff>
      </note>
    </measure>
    <measure number="3">
      <attributes>
        <divisions>96</divisions>
        <staves>2</staves>
      </attributes>
      <note>
        <pitch>
          <step>F</step>
          <alter>1</alter>
          <octave>4</octave>
        </pitch>
        <duration>192</duration>
        <type>half</type>
        <staff>1</staff>
      </note>
      <note>
        <pitch>
          <step>D</step>
          <alter>1</alter>
          <octave>5</octave>
        </pitch>
        <duration>192</duration>
        <type>half</type>
        <staff>1</staff>
      </note>
      <backup>
        <duration>384</duration>
      </backup>
      <note>
        <pitch>
          <step>D</step>
          <alter>1</alter>
          <octave>4</octave>
        </pitch>
        <duration>384</duration>
        <type>whole</type>
        <staff>2</staff>
      </note>
      <backup>
        <duration>384</duration>
      </backup>
      <note>
        <pitch>
          <step>B</step>
          <alter>0</alter>
          <octave>3</octave>
        </pitch>
        <duration>384</duration>
        <type>whole</type>
        <staff>2</staff>
      </note>
      <backup>
        <duration>384</duration>
      </backup>
      <note>
        <pitch>
          <step>F</step>
          <alter>1</alter>
          <octave>3</octave>
        </pitch>
        <duration>384</duration>
        <type>whole</type>
        <staff>2</staff>
      </note>
    </measure>
    <measure number="4">
      <attributes>
        <divisions>96</divisions>
        <staves>2</staves>
      </attributes>
      <note>
        <pitch>
          <step>C</step>
          <alter>1</alter>
          <octave>5</octave>
        </pitch>
        <duration>384</duration>
        <type>whole</type>
        <staff>1</staff>
      </note>
      <backup>
        <duration>384</duration>
      </backup>
      <note>
        <pitch>
          <step>F</step>
          <alter>0</alter>
          <octave>4</octave>
        </pitch>
        <duration>384</duration>
        <type>whole</type>
        <staff>2</staff>
      </note>
      <backup>
        <duration>384</duration>
      </backup>
      <note>
        <pitch>
          <step>C</step>
          <alter>1</alter>
          <octave>4</octave>
        </pitch>
        <duration>384</duration>
        <type>whole</type>
        <staff>2</staff>
      </note>
      <backup>
        <duration>384</duration>
      </backup>
      <note>
        <pitch>
          <step>F</step>
          <alter>0</alter>
          <octave>3</octave>
        </pitch>
        <duration>384</duration>
        <type>whole</type>
        <staff>2</staff>
      </note>
    </measure>
    <measure number="5">
      <attributes>
        <divisions>96</divisions>
        <staves>2</staves>
      </attributes>
      <note>
        <pitch>
          <step>D</step>
          <alter>1</alter>
          <octave>4</octave>
        </pitch>
        <duration>192</duration>
        <type>half</type>
        <staff>1</staff>
      </note>
      <note>
        <pitch>
          <step>B</step>
          <alter>0</alter>
          <octave>4</octave>
        </pitch>
        <duration>192</duration>
        <type>half</type>
        <staff>1</staff>
      </note>
      <backup>
        <duration>384</duration>
      </backup>
      <note>
        <pitch>
          <step>D</step>
          <alter>1</alter>
          <octave>4</octave>
        </pitch>
        <duration>384</duration>
        <type>whole</type>
        <staff>2</staff>
      </note>
      <backup>
        <duration>384</duration>
      </backup>
      <note>
        <pitch>
          <step>B</step>
          <alter>0</alter>
          <octave>3</octave>
        </pitch>
        <duration>384</duration>
        <type>whole</type>
        <staff>2</staff>
      </note>
      <backup>
        <duration>384</duration>
      </backup>
      <note>
        <pitch>
          <step>D</step>
          <alter>1</alter>
          <octave>3</octave>
        </pitch>
        <duration>384</duration>
        <type>whole</type>
        <staff>2</staff>
      </note>
    </measure>
    <measure number="6">
      <attributes>
        <divisions>96</divisions>
        <staves>2</staves>
      </attributes>
      <note>
        <pitch>
          <step>A</step>
          <alter>1</alter>
          <octave>4</octave>
        </pitch>
        <duration>96</duration>
        <type>quarter</type>
        <staff>1</staff>
      </note>
      <note>
        <pitch>
          <step>F</step>
          <alter>1</alter>
          <octave>4</octave>
        </pitch>
        <duration>48</duration>
        <type>eighth</type>
        <staff>1</staff>
      </note>
      <note>
        <pitch>
          <step>G</step>
          <alter>1</alter>
          <octave>4</octave>
        </pitch>
        <duration>48</duration>
        <type>eighth</type>
        <staff>1</staff>
      </note>
      <note>
        <pitch>
          <step>A</step>
          <alter>1</alter>
          <octave>4</octave>
        </pitch>
        <duration>96</duration>
        <type>quarter</type>
        <staff>1</staff>
      </note>
      <note>
        <pitch>
          <step>B</step>
          <alter>0</alter>
          <octave>4</octave>
        </pitch>
        <duration>96</duration>
        <type>quarter</type>
        <staff>1</staff>
      </note>
      <backup>
        <duration>384</duration>
      </backup>
      <note>
        <pitch>
          <step>F</step>
          <alter>1</alter>
          <octave>4</octave>
        </pitch>
        <duration>384</duration>
        <type>whole</type>
        <staff>2</staff>
      </note>
      <backup>
        <duration>384</duration>
      </backup>
      <note>
        <pitch>
          <step>A</step>
          <alter>1</alter>
          <octave>3</octave>
        </pitch>
        <duration>384</duration>
        <type>whole</type>
        <staff>2</staff>
      </note>
      <backup>
        <duration>384</duration>
      </backup>
      <note>
        <pitch>
          <step>F</step>
          <alter>1</alter>
          <octave>3</octave>
        </pitch>
        <duration>384</duration>
        <type>whole</type>
        <staff>2</staff>
      </note>
    </measure>
    <measure number="7">
      <attributes>
        <divisions>96</divisions>
        <staves>2</staves>
      </attributes>
      <note>
        <pitch>
          <step>G</step>
          <alter>1</alter>
          <octave>4</octave>
        </pitch>
        <duration>96</duration>
        <type>quarter</type>
        <staff>1</staff>
      </note>
      <note>
        <pitch>
          <step>F</step>
          <alter>0</alter>
          <octave>4</octave>
        </pitch>
        <duration>48</duration>
        <type>eighth</type>
        <staff>1</staff>
      </note>
      <note>
        <pitch>
          <step>F</step>
          <alter>1</alter>
          <octave>4</octave>
        </pitch>
        <duration>48</duration>
        <type>eighth</type>
        <staff>1</staff>
      </note>
      <note>
        <pitch>
          <step>G</step>
          <alter>1</alter>
          <octave>4</octave>
        </pitch>
        <duration>96</duration>
        <type>quarter</type>
        <staff>1</staff>
      </note>
      <note>
        <pitch>
          <step>A</step>
          <alter>1</alter>
          <octave>4</octave>
        </pitch>
        <duration>96</duration>
        <type>quarter</type>
        <staff>1</staff>
      </note>
      <backup>
        <duration>384</duration>
      </backup>
      <note>
        <pitch>
          <step>F</step>
          <alter>0</alter>
          <octave>4</octave>
        </pitch>
        <duration>384</duration>
        <type>whole</type>
        <staff>2</staff>
      </note>
      <backup>
        <duration>384</duration>
      </backup>
      <note>
        <pitch>
          <step>B</step>
          <alter>0</alter>
          <octave>3</octave>
        </pitch>
        <duration>384</duration>
        <type>whole</type>
        <staff>2</staff>
      </note>
      <backup>
        <duration>384</duration>
      </backup>
      <note>
        <pitch>
          <step>F</step>
          <alter>0</alter>
          <octave>3</octave>
        </pitch>
        <duration>384</duration>
        <type>whole</type>
        <staff>2</staff>
      </note>
    </measure>
    <measure number="8">
      <attributes>
        <divisions>96</divisions>
        <staves>2</staves>
      </attributes>
      <note>
        <pitch>
          <step>F</step>
          <alter>1</alter>
          <octave>4</octave>
        </pitch>
        <duration>384</duration>
        <type>whole</type>
        <staff>1</staff>
      </note>
      <backup>
        <duration>384</duration>
      </backup>
      <note>
        <pitch>
          <step>C</step>
          <alter>1</alter>
          <octave>4</octave>
        </pitch>
        <duration>384</duration>
        <type>whole</type>
        <staff>2</staff>
      </note>
      <backup>
        <duration>384</duration>
      </backup>
      <note>
        <pitch>
          <step>A</step>
          <alter>1</alter>
          <octave>3</octave>
        </pitch>
        <duration>384</duration>
        <type>whole</type>
        <staff>2</staff>
      </note>
      <backup>
        <duration>384</duration>
      </backup>
      <note>
        <pitch>
          <step>F</step>
          <alter>1</alter>
          <octave>3</octave>
        </pitch>
        <duration>384</duration>
        <type>whole</type>
        <staff>2</staff>
      </note>
    </measure>
  </part>
</score-partwise>
